<svg xmlns="http://www.w3.org/2000/svg" viewBox="0 0 1240.55 453.92"><defs><style>.cls-1{fill:#fff;}</style></defs><g id="Layer_2" data-name="Layer 2"><g id="Layer_1-2" data-name="Layer 1"><path class="cls-1" d="M242.91,81.8q-22.38-10.42-53.13-10.43t-53,10.43q-22.26,10.44-34.31,29.76T90.41,157.67q0,27,12.06,46.23t34.31,29.64Q159,244,189.78,244t53.13-10.43q22.38-10.44,34.44-29.76t12-46.11q0-27-12-46.23T242.91,81.8ZM235.66,198q-6.27,16.85-18,26t-27.92,9.13q-16.23,0-27.79-9.13t-17.83-26q-6.27-16.83-6.27-40.3t6.27-40.31q6.27-16.83,17.83-26t27.79-9.13q16.25,0,27.92,9.13t18,26q6.27,16.85,6.27,40.31T235.66,198Z"/><path class="cls-1" d="M477.32,180.19V88.91a10.8,10.8,0,0,1,3.81-8.53,13.59,13.59,0,0,1,9.23-3.32h3.93V74.69H440.92v2.37h3.93a13.61,13.61,0,0,1,9.23,3.32,10.8,10.8,0,0,1,3.81,8.53v93.18q0,15.89-5.66,27.14a41.18,41.18,0,0,1-16.11,17.43q-10.46,6.17-25.21,6.16-14.27,0-24.6-6.51a42.85,42.85,0,0,1-16-18.62q-5.65-12.09-5.65-28.68V88.91a10.8,10.8,0,0,1,3.81-8.53,13.56,13.56,0,0,1,9.22-3.32h3.94V74.69H304.16v2.37h3.93a13.61,13.61,0,0,1,9.23,3.32,10.8,10.8,0,0,1,3.81,8.53v91.52q0,19.68,9.22,33.9t27.92,21.93Q377,244,405,244q22.88,0,39.1-7.71t24.72-22Q477.32,199.87,477.32,180.19Z"/><path class="cls-1" d="M873.08,74.69H811.34v2.37H816a14.8,14.8,0,0,1,10.7,4.15,14.58,14.58,0,0,1,4.55,10.31v87l-121-107.4h-2.46a166.28,166.28,0,0,1,3,29.64V223.82A13.66,13.66,0,0,1,706.31,234a14.64,14.64,0,0,1-8.84,4.17,36.52,36.52,0,0,1-9.24-1.68,25.55,25.55,0,0,1-8.85-5.45,104.4,104.4,0,0,1-10-10.79c-2.3-2.85-4.68-6.08-7.13-9.72L655,199.87q-3.57-5.22-5.78-8.77a36.39,36.39,0,0,1-2.46-4.27,75.08,75.08,0,0,0-11.44-13.16A39.22,39.22,0,0,0,619,164.54q14.76-1.89,23.5-9A40.77,40.77,0,0,0,655,138.7a52.34,52.34,0,0,0,3.81-19.2q0-13-5.29-21.7a39,39,0,0,0-14.26-13.75,65.54,65.54,0,0,0-20-7.23,116.93,116.93,0,0,0-22.14-2.13H506.83v2.37H510a15.21,15.21,0,0,1,11,4.39A15,15,0,0,1,525.77,92V223.34A15,15,0,0,1,521,233.89a15.21,15.21,0,0,1-11,4.39h-3.2v2.37h81.42v-2.37h-3a15.59,15.59,0,0,1-11.07-4.39,13.93,13.93,0,0,1-4.67-10.55V86.07h14.75a28.77,28.77,0,0,1,19.56,7.59q8,7.35,9,24.65a36.56,36.56,0,0,1,0,5.93,38.79,38.79,0,0,1-.74,4.74q-1.73,10.2-5.91,16.36a25.66,25.66,0,0,1-10.08,9,29,29,0,0,1-12.79,2.84h-5.66v2.37a18,18,0,0,1,8,4.39q3.81,3.44,6.76,11.5,1,2.61,2.22,6.28c.81,2.45,1.72,5.06,2.7,7.83s2.13,5.61,3.44,8.53,2.62,5.85,3.94,8.77a49,49,0,0,0,4.43,7.95q6.87,10.91,16,16.36a59.9,59.9,0,0,0,20.79,7.46,151,151,0,0,0,25.7,2H773.21v-2.37h-4.67A14.75,14.75,0,0,1,758,234a13.65,13.65,0,0,1-4.42-10.19h0l-.17-87.25L874.55,244h2.22q-1.24-7.35-2.09-14.23a130.22,130.22,0,0,1-.87-16.12V91.52a14.43,14.43,0,0,1,4.68-10.31,14.9,14.9,0,0,1,10.57-4.15h4.43V74.69H873.08Z"/><path class="cls-1" d="M1049.92,189h-2.21a67.61,67.61,0,0,1-11.07,21.7,47.67,47.67,0,0,1-38.86,18.85H966.54v-65.2h29.77q10.32.24,17,6.75a21.88,21.88,0,0,1,6.64,16.24V189h2.46V128.74h-2.46v1.43a21.24,21.24,0,0,1-6.52,16.36,24.23,24.23,0,0,1-17.09,6.87H966.54V85.83h41.38q10.62,1.1,17,7.35,7.5,7.35,7.5,19.92v2.37h2.46v-45a37.92,37.92,0,0,1-7.38,1.9q-5.16.95-11.19,1.66a98.7,98.7,0,0,1-11.44.71H904.07v2.37h3.2A15.71,15.71,0,0,1,923,92V223.34a15.71,15.71,0,0,1-15.74,14.94h-3.2v2.37h145.85V189Z"/><path class="cls-1" d="M1180.53,74.69v2.37h3a8.89,8.89,0,0,1,6,2.25,11.7,11.7,0,0,1,3.57,5.69,8.34,8.34,0,0,1-1,6.76h0l-35.79,59.87-34.55-60.35a10,10,0,0,1,8.83-14.22h3V74.69h-88v2.37h3.44a26.27,26.27,0,0,1,14.51,4.27,32.16,32.16,0,0,1,10.09,9.72h.11l46.62,73.67v58.62a15,15,0,0,1-4.8,10.55,15.17,15.17,0,0,1-10.94,4.39h-3.2v2.37h81.42v-2.37h-3a15.59,15.59,0,0,1-11.06-4.39,13.94,13.94,0,0,1-4.68-10.55v-59l48.19-73.27h0a34.47,34.47,0,0,1,10.46-9.72,26.43,26.43,0,0,1,14.38-4.27h3.45V74.69Z"/><path class="cls-1" d="M453.32,407.69h-2.17a72,72,0,0,1-8.92,18,37.29,37.29,0,0,1-13.48,12q-8,4.18-19.14,4.19H380.48V308.68a14.84,14.84,0,0,1,4.24-10.09,12.93,12.93,0,0,1,9.67-4.19h2.83v-2.27h-60v2.27H340a12.93,12.93,0,0,1,9.67,4.19,14.84,14.84,0,0,1,4.24,10.09V434.21a14.8,14.8,0,0,1-4.24,10.08,12.89,12.89,0,0,1-9.67,4.19H337.2v2.27H453.32V407.7Z"/><path class="cls-1" d="M507.91,292.13H465.29v2.27h2.82a13,13,0,0,1,9.68,4.19A14.93,14.93,0,0,1,482,308.68V434.21a14.89,14.89,0,0,1-4.24,10.08,12.91,12.91,0,0,1-9.68,4.19h-2.82v2.27h60v-2.27h-2.82a12.91,12.91,0,0,1-9.68-4.19,14.84,14.84,0,0,1-4.24-10.08V308.68a14.89,14.89,0,0,1,4.24-10.09,13,13,0,0,1,9.68-4.19h2.82v-2.27H507.91Z"/><path class="cls-1" d="M696,292.13H655.34v2.27h4.14a12.61,12.61,0,0,1,9.46,4,14.58,14.58,0,0,1,4,9.86V405L560.1,288.73h-2.18a194.76,194.76,0,0,1,2.39,28.33v117.6a13.56,13.56,0,0,1-3.91,9.74,12.52,12.52,0,0,1-9.35,4.08h-4.13v2.27h58.93v-2.27h-4.13a12.5,12.5,0,0,1-9.35-4.08,13.57,13.57,0,0,1-3.92-9.74h0l-.16-96.79L697.1,453.92h1.95q-1.08-7.69-1.74-14.28t-.65-14.72V308.22a14.27,14.27,0,0,1,4.13-9.86,12.7,12.7,0,0,1,9.35-4h3.92v-2.27H696Z"/><path class="cls-1" d="M858,436l-55.74-75.56,46.34-56.82a30.83,30.83,0,0,1,22.45-9.47h.87v-2h-48.5v2h2.18c2.9,0,4.92,1.14,6.09,3.4s.87,4.69-.87,7.25h0L779.3,374.61q5.87,8.16,10.54,14.5t10,13.71q5.32,7.37,10.33,14.05t8.37,11.33c2.25,3.1,3.59,5,4,5.78a34.21,34.21,0,0,0,11.09,9.74,51.23,51.23,0,0,0,12.51,4.87,68.71,68.71,0,0,0,11.2,1.82c3.33.22,5.79.34,7.39.34h15v-2.27a24.26,24.26,0,0,1-11.85-3.29A37,37,0,0,1,858,436Z"/><path class="cls-1" d="M776.58,444.29a14.84,14.84,0,0,1-4.24-10.08V308.68a14.89,14.89,0,0,1,4.24-10.09,12.93,12.93,0,0,1,9.68-4.19h2.82v-2.27h-60v2.27h2.82a13,13,0,0,1,9.68,4.19,14.93,14.93,0,0,1,4.24,10.09V434.21a14.89,14.89,0,0,1-4.24,10.08,12.93,12.93,0,0,1-9.68,4.19h-2.82v2.27h60v-2.27h-2.82A12.9,12.9,0,0,1,776.58,444.29Z"/><path class="cls-1" d="M45.33,60.29V7.65L47,3.85,41.37,0,36,3.85l1.59,3.8V60.29C34.29,69.09,8.18,74,8.18,74v3.7h2.66q5.32,0,9.11,5.49a23.86,23.86,0,0,1,4,13.19V269.47a179.93,179.93,0,0,1-2.15,27.72A89.4,89.4,0,0,1,14.42,322,39.88,39.88,0,0,1,0,338.85v2.67a43.06,43.06,0,0,0,22.3-2.37,50,50,0,0,0,19.44-13.79,70.08,70.08,0,0,0,13.5-23.57,94.25,94.25,0,0,0,4.91-31.43v-174a23.7,23.7,0,0,1,4-13.19q3.78-5.49,9.1-5.49H75.9V74S48.73,69.09,45.33,60.29Z"/></g></g></svg>